<?xml version="1.0" standalone="no"?>
<!DOCTYPE svg PUBLIC "-//W3C//DTD SVG 20010904//EN"
 "http://www.w3.org/TR/2001/REC-SVG-20010904/DTD/svg10.dtd">
<svg version="1.0" xmlns="http://www.w3.org/2000/svg"
 width="1599.000000pt" height="899.000000pt" viewBox="0 0 1599.000000 899.000000"
 preserveAspectRatio="xMidYMid meet">

<g transform="translate(0.000000,899.000000) scale(0.100000,-0.100000)"
fill="#000000" stroke="none">
<path d="M0 4495 l0 -4495 444 0 c441 0 445 0 451 21 7 22 1 34 -18 34 -5 0
-12 6 -15 13 -2 6 1 12 7 12 6 0 11 6 11 14 0 8 5 16 10 18 6 2 2 13 -10 25
-29 32 -26 58 8 59 283 16 1156 35 2432 55 794 12 1344 24 1765 38 469 16
2390 57 3350 71 1296 18 1448 20 2070 25 341 3 638 7 660 10 22 2 288 7 590
10 303 3 723 10 935 15 212 5 567 12 790 15 595 8 821 15 841 26 35 18 41 52
55 273 7 122 16 272 20 334 5 75 12 116 21 123 18 16 23 16 653 24 305 4 558
10 562 14 6 6 25 260 48 651 5 96 19 308 30 470 33 487 102 1622 125 2040 8
151 17 304 20 340 3 36 12 182 20 325 40 715 77 1364 95 1665 11 184 20 415
20 513 l0 177 -327 0 c-396 1 -933 16 -944 27 -4 4 -5 35 -2 69 5 60 13 71 74
102 4 1 9 -7 12 -18 7 -27 30 -16 55 25 16 26 16 31 2 61 -8 19 -19 33 -24 34
-5 0 -17 7 -27 16 -16 14 -20 14 -44 -2 -22 -14 -28 -15 -35 -4 -5 8 -7 26 -4
40 12 70 23 400 14 430 -5 19 -8 35 -7 37 2 1 147 -2 323 -7 175 -5 434 -12
574 -15 140 -3 279 -8 308 -10 l52 -5 0 400 0 400 -7995 0 -7995 0 0 -4495z
m8230 4280 c15 -19 6 -61 -16 -69 -32 -12 -54 26 -38 68 8 20 38 21 54 1z
m-6615 -270 c138 -3 547 -10 910 -15 1512 -22 2585 -41 3225 -55 124 -3 437
-9 695 -15 259 -5 560 -12 670 -15 110 -2 441 -9 735 -15 294 -6 613 -15 709
-20 95 -5 179 -6 186 -4 11 4 457 -3 1870 -31 1347 -27 2867 -68 2883 -78 6
-5 19 -21 27 -38 14 -25 14 -66 5 -322 -5 -160 -19 -555 -30 -877 -30 -877
-53 -1501 -70 -1900 -6 -129 -22 -500 -35 -825 -34 -791 -84 -1904 -94 -2093
-10 -164 -16 -183 -69 -203 -23 -9 -1341 -22 -3452 -34 l-1085 -7 -29 23 -29
23 7 796 6 796 -35 14 -36 14 26 14 c14 7 30 24 35 37 7 19 13 346 10 553 0
25 -30 29 -90 12 -19 -6 -57 -11 -85 -11 -65 0 -126 -16 -148 -40 -10 -10 -22
-19 -26 -19 -11 0 -31 -55 -31 -85 0 -25 34 -60 49 -51 13 8 41 -21 41 -44 0
-10 -23 -42 -51 -71 -48 -49 -52 -51 -92 -46 -23 3 -46 12 -52 19 -8 11 -13
11 -27 -3 -9 -10 -13 -20 -10 -24 4 -3 -1 -3 -10 0 -13 5 -17 -2 -20 -39 -3
-39 -1 -45 14 -40 9 2 19 0 23 -6 5 -8 11 -8 21 1 11 9 21 9 40 1 20 -10 23
-17 18 -37 -3 -14 -1 -31 6 -39 6 -8 10 -30 8 -48 -3 -30 -6 -33 -40 -36 -21
-2 -53 1 -73 7 -19 5 -35 6 -35 1 0 -11 -64 -22 -85 -14 -15 6 -15 9 6 20 13
7 31 13 39 14 25 0 66 53 55 70 -4 6 -12 4 -21 -5 -9 -8 -24 -15 -34 -15 -10
0 -22 -4 -25 -10 -3 -6 -15 -10 -26 -10 -11 0 -33 -13 -49 -29 l-29 -29 -29
27 c-16 14 -32 33 -35 41 -4 12 -6 11 -6 -2 -1 -20 -12 -23 -28 -7 -6 6 -21 8
-34 4 -13 -5 -25 -6 -25 -4 -1 2 -11 -4 -21 -14 -11 -9 -23 -14 -27 -10 -4 4
-23 8 -42 9 -28 1 -39 -5 -60 -33 l-25 -33 -120 0 c-90 0 -141 5 -202 21 -152
39 -210 49 -311 50 -130 1 -190 -8 -248 -38 -36 -19 -55 -23 -82 -18 -33 7
-37 12 -51 58 -8 28 -15 61 -15 73 0 12 -7 38 -15 57 -16 39 -20 97 -7 97 18
0 82 74 82 95 0 12 -11 32 -24 44 -18 17 -27 38 -31 80 -15 127 -73 309 -157
491 -17 36 -38 88 -48 115 -50 139 -157 333 -212 385 -52 50 -107 90 -121 90
-16 0 -27 -29 -27 -76 0 -45 -11 -94 -21 -94 -4 0 -11 17 -14 38 -13 81 -19
95 -49 103 -40 11 -60 -6 -89 -73 -14 -32 -31 -58 -37 -58 -6 0 -59 49 -118
109 -102 104 -151 141 -188 141 -14 0 -16 -7 -11 -37 2 -21 6 -42 7 -48 1 -5
1 -57 0 -115 l-3 -105 -7 79 c-5 44 -13 82 -20 86 -18 11 -90 21 -101 15 -5
-4 -7 -10 -4 -15 3 -4 -3 -6 -14 -3 -14 4 -20 17 -24 59 -9 89 -67 184 -113
184 -19 0 -23 10 -40 110 -14 83 -14 100 -1 178 9 48 19 111 22 140 5 39 13
57 32 71 90 72 115 335 34 374 -26 12 -26 14 -32 157 -7 162 -23 267 -45 291
-21 24 -89 30 -153 13 -31 -7 -89 -12 -128 -11 -40 2 -73 -1 -73 -6 0 -5 -18
-7 -40 -4 -29 4 -40 1 -40 -8 0 -16 -31 -29 -39 -16 -6 9 -33 14 -58 12 -19
-2 -16 -51 2 -51 8 0 15 -4 15 -10 0 -5 8 -10 18 -10 11 0 29 -9 41 -19 22
-19 22 -19 2 -26 -12 -3 -21 -10 -21 -15 0 -5 -9 -12 -20 -15 -11 -3 -20 -10
-20 -15 0 -5 -11 -21 -24 -35 -26 -28 -46 -26 -46 3 0 14 -2 14 -9 3 -5 -8
-16 -11 -24 -8 -22 8 -42 -20 -39 -54 2 -16 -1 -29 -7 -29 -6 0 -11 11 -11 24
0 18 -9 27 -40 40 -31 12 -40 21 -40 40 0 18 -9 29 -33 41 -28 13 -33 21 -35
53 -4 65 -13 92 -40 119 -30 30 -84 33 -114 7 -12 -12 -21 -13 -35 -6 -14 8
-26 4 -58 -22 -22 -18 -50 -36 -62 -40 -12 -4 -32 -21 -44 -38 -21 -29 -22
-35 -11 -88 7 -31 12 -65 12 -76 0 -28 47 -177 77 -246 16 -36 32 -58 46 -62
19 -5 20 -9 14 -128 -8 -131 3 -190 56 -328 51 -134 70 -163 159 -250 56 -55
88 -94 88 -107 0 -12 -13 -35 -30 -51 -16 -17 -30 -39 -30 -49 0 -29 26 -104
49 -146 29 -52 27 -58 -18 -51 -31 5 -43 2 -60 -15 -12 -12 -27 -21 -35 -21
-25 0 -63 39 -86 86 l-22 47 -23 -24 c-12 -13 -33 -51 -44 -83 l-22 -60 23
-18 c13 -10 30 -18 38 -18 34 0 -9 -19 -55 -24 -28 -2 -58 -8 -67 -11 -13 -5
-21 0 -29 19 -14 30 -22 32 -40 10 -12 -14 -37 -16 -229 -10 -220 7 -469 21
-573 32 -48 5 -60 10 -69 30 -9 20 -6 28 20 58 35 40 56 97 48 130 -6 26 -22
31 -138 42 -51 5 -67 11 -71 24 -9 36 -260 61 -402 40 -122 -18 -124 -18 -219
-25 -132 -10 -167 -29 -204 -111 -22 -46 -23 -60 -18 -150 3 -54 10 -125 16
-158 6 -32 9 -61 6 -63 -10 -11 -127 -8 -134 3 -4 6 -20 13 -37 17 -16 3 -43
10 -59 16 -24 10 -26 14 -15 27 11 13 10 15 -2 14 -33 -5 -49 1 -49 19 0 11
-6 22 -12 25 -10 5 -10 7 0 12 6 3 10 10 6 15 -10 16 7 69 22 69 28 0 15 41
-16 51 -31 11 -41 29 -15 29 8 0 15 5 15 10 0 6 -4 10 -9 10 -6 0 -13 -4 -16
-10 -9 -14 -52 -12 -58 3 -4 9 -8 8 -16 -3 -8 -12 -14 -11 -35 10 -15 13 -26
35 -26 49 0 14 -9 37 -20 51 -12 16 -20 41 -20 68 0 39 -5 49 -45 88 -51 49
-55 61 -23 73 21 8 68 -7 68 -21 0 -5 10 -8 21 -8 17 0 19 3 11 13 -8 9 -8 24
-1 51 8 27 7 41 -1 52 -7 7 -10 21 -6 29 3 9 0 15 -8 15 -18 0 -24 18 -32 95
-4 36 -11 65 -15 65 -5 0 -9 -4 -9 -10 0 -15 -26 -12 -40 5 -10 12 -7 19 14
38 14 13 26 29 26 35 0 13 28 42 41 42 5 0 9 -7 9 -15 0 -24 56 -20 63 5 3 11
19 25 36 31 29 10 43 29 21 29 -5 0 -10 9 -10 20 0 12 -7 20 -16 20 -14 0 -16
8 -12 44 7 57 -5 80 -32 64 -15 -10 -22 -10 -32 0 -6 6 -22 12 -35 12 -16 0
-27 9 -37 34 -20 48 -47 76 -76 77 -23 2 -23 2 -2 6 12 2 22 11 22 19 0 12 7
14 30 9 19 -4 30 -3 30 4 0 6 -7 11 -16 11 -13 0 -15 7 -9 40 6 33 4 40 -9 40
-9 0 -16 -8 -16 -17 -1 -10 -7 -29 -15 -43 -14 -24 -14 -23 -15 30 0 35 -3 50
-9 41 -6 -10 -10 -10 -16 -1 -6 9 -9 9 -15 0 -12 -20 -30 -2 -30 30 0 29 21
53 28 32 2 -7 8 -10 13 -6 11 6 -7 44 -30 61 -11 9 -12 12 -3 13 24 0 1 20
-24 20 -20 0 -24 5 -24 28 0 15 -3 45 -6 67 -6 33 -4 38 7 28 20 -20 39 -15
49 12 12 33 28 32 42 -2 l12 -28 4 39 c4 47 -1 52 -30 32 -29 -21 -38 -20 -38
3 0 13 8 21 23 23 18 2 23 10 25 40 3 33 -1 40 -30 58 -18 11 -27 20 -19 20 7
0 22 11 33 25 22 28 38 32 38 10 0 -11 11 -15 40 -15 33 0 40 3 40 20 0 11 5
20 10 20 6 0 10 5 10 10 0 6 -13 10 -29 10 -16 0 -31 6 -35 15 -3 8 -12 15
-21 15 -9 0 -15 9 -15 25 0 14 -5 25 -12 25 -9 0 -9 3 0 12 18 18 15 25 -20
38 -30 10 -31 12 -14 22 15 8 23 6 41 -14 12 -14 37 -30 54 -38 17 -7 31 -19
31 -26 0 -16 26 -19 35 -4 3 6 1 10 -4 10 -6 0 -11 9 -11 20 0 11 5 20 11 20
8 0 10 16 5 50 -6 44 -1 79 20 153 4 14 1 17 -13 15 -13 -2 -18 3 -18 22 0 18
5 24 18 22 9 -2 17 3 17 11 0 28 -31 87 -45 87 -8 0 -15 8 -15 19 0 10 -6 24
-14 30 -9 8 -12 26 -8 61 3 35 1 50 -8 50 -7 0 -10 10 -6 28 3 15 1 34 -4 42
-9 13 -12 12 -25 -4 -14 -18 -15 -15 -15 37 0 33 -4 57 -11 57 -5 0 -7 5 -3
12 6 9 9 9 12 0 2 -7 20 -12 39 -12 l36 0 -6 -65 c-4 -39 -2 -65 3 -65 6 0 10
-7 10 -15 0 -10 10 -15 30 -15 28 0 30 2 30 40 0 22 -4 40 -9 40 -4 0 -11 25
-14 56 -3 31 -13 64 -22 74 -9 10 -15 23 -12 28 3 4 7 30 8 58 1 27 4 55 7 62
7 20 21 14 28 -13 8 -31 24 -33 24 -2 0 15 3 18 8 9 7 -10 20 -10 63 -2 30 6
61 14 69 17 8 4 24 8 35 9 11 2 31 5 45 8 14 2 28 5 33 5 4 1 7 21 7 46 0 25
-3 44 -7 44 -21 -3 -32 3 -38 20 -3 11 -15 23 -26 26 -12 4 -18 12 -15 21 3 8
-1 14 -8 14 -8 0 -26 7 -42 14 -15 8 -32 12 -37 9 -6 -3 -15 1 -22 10 -13 18
-234 29 -894 43 l-323 6 3 -218 4 -219 -42 -3 -41 -3 -6 93 c-10 159 -25 741
-19 751 5 8 587 4 1198 -8z m-32 -705 c16 -20 16 -20 -23 -20 -39 0 -39 0 -23
20 10 11 20 20 23 20 3 0 13 -9 23 -20z m13167 -149 c0 -5 -7 -14 -15 -21 -12
-10 -15 -10 -15 2 0 8 3 18 7 21 9 10 23 9 23 -2z m-13120 -61 c0 -29 -4 -40
-15 -40 -11 0 -15 11 -15 40 0 29 4 40 15 40 11 0 15 -11 15 -40z m12130 5 c0
-26 3 -33 15 -29 8 4 15 1 15 -5 0 -7 6 -11 13 -10 41 5 47 -1 47 -47 0 -82
-44 -137 -94 -118 -25 10 -82 88 -78 107 3 13 10 15 28 11 23 -6 24 -4 24 37
0 52 9 89 21 89 5 0 9 -16 9 -35z m-12290 -105 c0 -5 -2 -10 -4 -10 -3 0 -8 5
-11 10 -3 6 -1 10 4 10 6 0 11 -4 11 -10z m40 -5 c0 -8 -4 -15 -10 -15 -5 0
-10 7 -10 15 0 8 5 15 10 15 6 0 10 -7 10 -15z m101 -471 c-5 -16 -10 -21 -10
-12 -1 18 10 51 15 45 2 -1 -1 -16 -5 -33z m-172 -66 c0 -35 -2 -39 -9 -21 -8
19 -3 63 6 63 2 0 4 -19 3 -42z m1 -164 c0 -16 -9 -18 -30 -4 -13 9 -13 11 0
19 17 12 30 5 30 -15z m2877 -211 c-3 -3 -10 -2 -16 2 -7 4 -7 10 2 20 10 11
13 11 15 -2 2 -8 1 -17 -1 -20z m263 -209 c0 -8 -6 -14 -14 -14 -7 0 -28 -3
-46 -6 -31 -7 -32 -6 -20 16 9 16 18 21 36 17 13 -2 24 0 24 5 0 5 5 6 10 3 6
-3 10 -13 10 -21z m-2900 -464 c0 -13 -5 -18 -15 -14 -16 7 -19 17 -8 27 12
13 23 7 23 -13z m-30 -34 c0 -3 -4 -8 -10 -11 -5 -3 -10 -1 -10 4 0 6 5 11 10
11 6 0 10 -2 10 -4z m27 -38 c-3 -8 -6 -5 -6 6 -1 11 2 17 5 13 3 -3 4 -12 1
-19z m-33 -294 c4 -9 1 -23 -5 -30 -16 -19 -39 0 -32 26 6 24 28 26 37 4z
m3141 -575 c137 -11 101 -10 300 -7 171 1 367 -6 395 -15 8 -3 38 -8 66 -10
31 -4 66 -16 92 -33 45 -30 56 -51 20 -39 -13 3 -175 10 -361 15 -185 5 -345
11 -355 14 -9 3 -102 8 -207 10 -104 3 -214 9 -243 14 -40 7 -67 6 -104 -5
-42 -13 -52 -13 -59 -2 -15 23 -9 35 31 60 21 14 48 16 170 12 79 -3 194 -9
255 -14z m-350 -104 c182 -3 411 -8 510 -11 99 -3 291 -9 426 -12 210 -6 249
-10 272 -25 28 -18 36 -57 18 -86 -8 -12 -16 -13 -48 -3 -78 22 -540 34 -773
18 -36 -2 -73 -4 -82 -5 -9 -1 -31 -13 -48 -28 -21 -17 -34 -22 -39 -15 -4 7
-58 13 -141 16 -167 5 -379 23 -443 36 -26 6 -62 10 -80 10 -34 0 -97 51 -97
80 0 35 22 42 110 36 47 -3 234 -8 415 -11z m-834 -125 c113 -14 145 -30 160
-81 7 -21 17 -43 23 -48 20 -15 159 -40 281 -52 66 -6 122 -12 125 -14 6 -4
304 -17 392 -17 36 0 71 3 77 6 15 9 25 -13 36 -79 8 -51 14 -62 37 -73 23
-11 31 -10 52 3 24 16 83 16 269 -1 l67 -6 0 26 c0 15 -7 29 -15 32 -8 4 -15
12 -15 20 0 11 26 12 130 9 109 -3 133 -1 146 13 11 11 31 15 68 13 40 -2 58
3 78 18 34 27 38 26 38 -4 0 -18 5 -25 19 -25 26 0 35 -17 32 -62 -2 -37 -1
-37 34 -36 19 1 36 -1 38 -3 2 -2 -1 -87 -5 -189 -8 -176 -24 -270 -49 -285
-5 -3 -36 -3 -69 1 -58 6 -62 8 -81 46 -27 52 -57 66 -95 42 -16 -11 -43 -33
-60 -51 -29 -30 -33 -31 -73 -22 -23 5 -52 7 -66 3 -13 -3 -39 -1 -57 5 -18 6
-73 12 -123 13 l-90 3 -3 -82 c-2 -57 -7 -85 -18 -94 -12 -10 -83 -8 -362 10
-368 24 -412 28 -452 34 -14 2 -35 5 -48 5 -13 1 -30 15 -42 34 -17 28 -19 47
-16 152 6 189 17 294 33 307 20 17 145 28 388 34 228 6 258 9 252 28 -6 21
-78 39 -182 47 -126 10 -275 32 -430 65 -66 14 -190 39 -275 56 -127 25 -159
35 -178 55 -13 13 -27 24 -32 24 -5 0 -25 14 -45 31 -28 25 -35 38 -35 68 0
42 -16 40 141 21z m1809 -113 c0 -2 -11 -18 -25 -37 -17 -23 -25 -28 -25 -17
0 24 22 57 37 57 7 0 13 -1 13 -3z m-510 -154 c14 -29 17 -31 26 -15 7 9 15
14 19 10 15 -15 -16 -36 -61 -41 -68 -7 -85 0 -78 32 10 39 24 52 53 49 18 -2
31 -13 41 -35z m-1552 -5 c70 -13 89 -39 67 -91 -10 -25 -22 -37 -35 -37 -11
0 -20 5 -20 10 0 6 -9 10 -21 10 -20 0 -58 35 -59 54 0 5 -7 17 -15 26 -19 22
-9 54 14 44 9 -4 40 -11 69 -16z m1722 -4 c5 -6 -40 -43 -52 -44 -10 0 -20 38
-13 51 7 10 53 5 65 -7z m3330 -458 c0 -11 -19 -15 -25 -6 -3 5 1 10 9 10 9 0
16 -2 16 -4z m-4791 -61 c5 2 28 -5 52 -17 24 -12 38 -23 32 -25 -7 -3 -13
-11 -13 -19 0 -21 -21 -17 -50 9 -31 29 -51 63 -42 72 4 4 8 0 10 -9 2 -9 7
-14 11 -11z m4856 -96 c10 -15 -1 -23 -20 -15 -9 3 -13 10 -10 16 8 13 22 13
30 -1z m-3080 -199 c72 0 145 -4 164 -7 32 -5 33 -7 15 -20 -15 -11 -57 -13
-224 -7 -113 3 -209 10 -215 15 -17 16 10 25 72 23 32 -1 117 -3 188 -4z
m-302 -7 c-7 -2 -19 -2 -25 0 -7 3 -2 5 12 5 14 0 19 -2 13 -5z m-2413 -955
c0 -19 -2 -20 -10 -8 -13 19 -13 30 0 30 6 0 10 -10 10 -22z m9 -60 c43 -15
51 -24 51 -61 0 -31 -43 -81 -63 -74 -7 2 -14 19 -17 37 -3 19 -14 38 -25 44
-33 18 -36 30 -14 49 25 20 23 20 68 5z m4009 -12 c4 -18 -14 -46 -29 -46 -11
0 -12 54 -2 64 11 10 28 1 31 -18z m-3835 -3 c9 -9 -13 -34 -24 -27 -14 8 -11
34 4 34 8 0 17 -3 20 -7z m57 -34 c0 -4 3 -15 6 -24 10 -25 -35 -16 -52 11
-13 19 -12 21 16 21 16 0 30 -4 30 -8z m-357 -29 c7 -6 20 -16 31 -24 13 -9
16 -19 12 -34 -9 -28 -21 -28 -51 3 -38 37 -30 87 8 55z m315 -44 c7 -36 -15
-39 -49 -7 l-34 31 40 -2 c30 -2 41 -8 43 -22z m142 -286 c0 -11 -4 -20 -10
-20 -5 0 -10 9 -10 20 0 11 5 20 10 20 6 0 10 -9 10 -20z m-1152 -12 c8 -8 15
-8 27 2 13 10 15 9 15 -9 0 -22 26 -29 33 -8 3 9 7 9 20 -2 13 -10 16 -27 15
-69 -4 -69 -22 -79 -46 -23 -18 43 -32 53 -32 23 0 -23 -32 -43 -51 -31 -8 4
-24 6 -36 3 -12 -3 -47 0 -78 6 -40 8 -60 9 -68 1 -7 -7 -2 -14 16 -22 25 -11
38 -38 20 -40 -5 0 -19 -2 -32 -5 -18 -3 -33 4 -54 26 -16 17 -35 30 -41 29
-30 -3 -57 14 -54 35 3 22 48 37 48 17 0 -31 106 8 120 44 10 27 30 34 30 10
0 -18 9 -19 33 -1 9 7 28 11 41 9 13 -3 27 0 30 6 9 14 29 14 44 -1z m4086 3
c7 -11 -3 -41 -14 -41 -4 0 -7 11 -7 25 0 25 11 33 21 16z m-80 -16 c-4 -8 -8
-15 -10 -15 -2 0 -4 7 -4 15 0 8 4 15 10 15 5 0 7 -7 4 -15z m-3217 -17 c-3
-8 -6 -5 -6 6 -1 11 2 17 5 13 3 -3 4 -12 1 -19z m358 -28 c4 -6 0 -21 -9 -34
-18 -28 -12 -36 25 -36 15 0 31 -4 34 -10 6 -9 -58 -41 -79 -39 -31 4 -38 -2
-32 -26 5 -19 2 -25 -9 -25 -10 0 -15 8 -14 23 5 55 -1 78 -23 86 -19 7 -25 5
-34 -16 -8 -19 -12 -22 -17 -11 -3 9 -15 18 -26 21 -16 4 -22 0 -27 -19 -3
-13 -12 -24 -20 -24 -16 0 -19 26 -3 35 5 4 15 19 20 33 l11 27 20 -25 20 -24
19 24 c10 14 19 28 19 33 0 13 21 7 47 -13 33 -26 40 -25 47 5 7 26 20 32 31
15z m3905 -20 c0 -21 -15 -27 -25 -10 -7 12 2 30 16 30 5 0 9 -9 9 -20z
m-4804 -52 c13 -30 12 -50 -3 -55 -13 -5 -33 35 -33 63 0 22 26 16 36 -8z
m552 -11 c2 -10 -3 -17 -12 -17 -9 0 -16 2 -16 4 0 2 -3 12 -6 21 -5 13 -2 16
12 13 10 -2 20 -11 22 -21z m67 3 c3 -5 1 -10 -4 -10 -6 0 -11 5 -11 10 0 6 2
10 4 10 3 0 8 -4 11 -10z m125 -65 c19 -23 5 -42 -37 -47 -52 -7 -56 -2 -31
33 24 32 49 37 68 14z m-1150 -15 c0 -5 -4 -10 -10 -10 -5 0 -10 5 -10 10 0 6
5 10 10 10 6 0 10 -4 10 -10z m110 2 c0 -5 6 -15 13 -23 6 -8 11 -12 10 -10
-5 8 20 31 33 31 8 0 22 -9 31 -20 10 -11 25 -20 35 -20 9 0 20 -5 23 -10 4
-6 11 -8 16 -4 6 3 24 -9 40 -27 25 -28 32 -31 39 -19 7 11 12 12 21 3 6 -6
25 -9 44 -6 28 5 33 2 39 -21 8 -33 24 -33 32 -1 7 28 14 31 32 13 19 -19 14
-45 -11 -52 -13 -3 -29 -17 -37 -30 -7 -14 -35 -34 -66 -48 -83 -36 -71 -60
31 -65 106 -4 124 -9 150 -37 28 -31 32 -63 10 -92 -8 -10 -15 -29 -15 -41 0
-23 -14 -31 -25 -14 -3 5 -27 8 -53 7 -26 -2 -57 1 -68 7 -14 6 -28 6 -40 -1
-33 -18 -80 10 -110 65 -15 28 -15 28 -10 -19 2 -26 7 -52 10 -57 8 -13 -4
-42 -15 -35 -5 3 -7 9 -4 14 6 10 -12 23 -35 25 -8 1 -29 5 -46 9 -26 6 -32 4
-37 -13 -7 -27 -47 -29 -47 -2 0 12 -9 21 -26 25 -20 5 -25 12 -22 34 3 27 8
29 42 16 15 -6 17 -4 12 14 -7 20 -4 21 23 16 37 -8 61 9 61 41 0 29 -10 38
-27 24 -10 -9 -17 -8 -28 1 -13 10 -19 10 -35 -5 -11 -10 -20 -24 -20 -31 0
-7 -9 -18 -19 -23 -26 -14 -35 11 -20 56 6 19 8 44 5 57 -8 33 2 38 33 16 14
-10 49 -21 76 -24 66 -8 112 -34 125 -69 9 -27 11 -28 26 -13 9 9 13 23 10 32
-3 8 -1 24 4 35 9 16 7 19 -14 19 -13 0 -27 -7 -30 -16 -11 -30 -26 -3 -20 37
4 26 3 39 -5 39 -6 0 -11 -6 -11 -12 0 -7 -5 -5 -11 5 -5 9 -21 17 -35 17 -27
0 -65 17 -76 33 -3 6 -14 -6 -24 -26 -16 -33 -19 -35 -34 -22 -14 12 -19 12
-44 0 -22 -12 -32 -12 -43 -4 -7 7 -16 10 -19 7 -7 -7 28 -78 38 -78 20 0 6
-41 -17 -50 -31 -12 -32 -28 -1 -39 30 -12 67 -83 63 -124 -1 -22 2 -31 11
-29 8 1 12 -3 10 -10 -3 -7 -13 -13 -24 -13 -10 0 -23 -3 -29 -6 -5 -3 -63 -6
-127 -7 -108 -1 -117 1 -123 19 -8 25 -21 24 -28 -1 -7 -26 -24 -26 -32 0 -3
11 -15 25 -26 30 -23 13 -25 55 -3 64 9 3 19 4 24 1 4 -3 15 7 25 21 l17 26
23 -22 c25 -23 55 -21 55 3 0 22 -67 80 -85 73 -19 -7 -22 1 -29 88 -5 62 -4
68 14 73 11 3 20 13 20 22 0 10 11 28 25 41 21 20 27 21 40 10 11 -9 19 -10
23 -3 4 6 26 19 49 31 36 17 44 18 54 6 14 -17 5 -42 -18 -51 -10 -3 -26 -14
-36 -25 -10 -10 -27 -18 -38 -18 -14 0 -19 -5 -17 -17 2 -10 9 -18 16 -18 20
0 32 -26 32 -72 0 -31 4 -43 14 -43 20 0 31 21 17 29 -14 9 -25 111 -11 111 5
0 12 9 15 21 4 12 12 18 21 15 19 -7 58 34 70 75 7 25 17 35 42 41 18 5 38 17
45 28 12 20 37 28 37 12z m1448 -14 c-6 -18 -28 -21 -28 -4 0 9 7 16 16 16 9
0 14 -5 12 -12z m-640 -10 c-6 -18 -28 -21 -28 -4 0 9 7 16 16 16 9 0 14 -5
12 -12z m592 2 c0 -5 -4 -10 -10 -10 -5 0 -10 5 -10 10 0 6 5 10 10 10 6 0 10
-4 10 -10z m2572 -20 c26 0 22 -20 -4 -21 -53 -3 -66 4 -48 26 9 11 16 13 24
5 5 -5 18 -10 28 -10z m-2482 -37 c0 -25 -15 -45 -30 -41 -8 2 -15 -5 -17 -14
-3 -11 3 -18 19 -20 29 -4 35 -34 13 -58 -12 -14 -15 -27 -11 -47 7 -27 7 -27
-8 -8 -8 11 -16 35 -16 53 0 22 -5 32 -15 32 -24 0 -20 75 5 100 25 25 60 27
60 3z m-527 -8 c4 -8 2 -17 -3 -20 -6 -4 -10 3 -10 14 0 25 6 27 13 6z m3293
-34 c8 7 12 20 8 31 -5 15 -2 19 13 16 27 -5 30 -59 4 -82 -19 -18 -22 -18
-46 -2 -17 11 -25 26 -25 45 0 41 13 47 23 11 7 -26 10 -30 23 -19z m-3264
-28 c2 -10 12 -18 23 -18 11 0 21 -8 23 -17 3 -15 -4 -18 -32 -18 -32 0 -36 3
-36 28 -1 27 -1 27 -15 -7 -13 -28 -17 -31 -30 -21 -18 15 -19 42 -3 58 19 19
66 15 70 -5z m1968 -189 c0 -41 -4 -63 -10 -59 -5 3 -10 12 -10 20 0 8 -16 16
-40 20 -49 8 -56 39 -12 56 15 6 34 15 42 19 27 16 30 11 30 -56z m-1514 -68
c6 -37 -1 -60 -17 -51 -12 8 -12 85 1 85 5 0 12 -15 16 -34z m-377 -7 c16 -46
14 -48 -9 -11 -22 37 -24 42 -11 42 5 0 14 -14 20 -31z m603 -51 c-4 -90 -8
-104 -26 -89 -7 6 -16 8 -19 4 -4 -3 -6 25 -6 63 1 38 4 57 6 42 2 -16 9 -28
14 -28 16 0 22 30 11 56 -10 20 -9 24 6 24 15 0 17 -9 14 -72z m1248 -10 c0
-15 5 -19 20 -15 17 4 20 0 20 -24 0 -22 -5 -29 -18 -29 -35 0 -66 52 -50 83
11 22 28 13 28 -15z m-1885 2 c3 -5 1 -19 -6 -31 -10 -20 -12 -21 -21 -5 -16
29 10 64 27 36z m815 -43 c0 -24 -4 -37 -9 -31 -11 12 -22 70 -14 78 13 13 23
-7 23 -47z m-910 33 c0 -5 -7 -10 -15 -10 -8 0 -15 5 -15 10 0 6 7 10 15 10 8
0 15 -4 15 -10z m4528 -37 c4 -36 -15 -46 -20 -11 -5 34 -26 32 -42 -4 l-14
-33 -1 43 -1 43 38 -3 c34 -3 37 -6 40 -35z m155 22 c11 5 16 -3 21 -30 8 -42
-5 -65 -39 -65 -29 0 -37 20 -29 71 5 30 10 37 19 29 7 -6 19 -8 28 -5z m59
-32 c-10 -28 -10 -28 -11 12 -1 28 2 36 10 28 8 -8 8 -19 1 -40z m50 -7 c-9
-18 -11 -16 -11 19 0 33 1 37 10 21 8 -12 8 -25 1 -40z m188 -7 c0 -13 -57
-11 -65 2 -4 6 3 21 15 35 l23 24 14 -26 c7 -15 13 -30 13 -35z m90 38 c0 -28
-17 -47 -42 -47 -11 0 -18 7 -18 20 0 11 7 20 15 20 21 0 19 18 -2 23 -10 3
-3 5 15 6 27 1 32 -2 32 -22z m100 6 c-1 -24 -24 -53 -42 -53 -21 0 -38 21
-38 47 0 20 5 23 40 23 32 0 40 -4 40 -17z m-1032 -2 c8 -4 12 -19 10 -32 -2
-19 -10 -25 -35 -27 -38 -4 -47 22 -11 31 18 5 19 8 8 21 -10 13 -10 16 1 16
8 0 20 -4 27 -9z m102 -26 c0 -32 -2 -35 -29 -35 -21 0 -32 6 -36 21 -9 28 5
40 58 48 4 0 7 -15 7 -34z m60 20 c0 -9 7 -18 15 -21 24 -10 18 -36 -7 -32
-18 2 -24 11 -26 36 -2 18 1 32 7 32 6 0 11 -7 11 -15z m298 -12 c17 -39 16
-43 -18 -43 -16 0 -30 4 -30 8 0 12 24 62 30 62 3 0 11 -12 18 -27z m-4078
-20 c6 -6 -22 -23 -37 -23 -7 0 -13 9 -13 21 0 16 4 19 23 13 12 -3 24 -8 27
-11z m298 0 c-2 -10 -13 -19 -26 -21 -17 -3 -22 2 -22 17 0 16 6 21 26 21 19
0 25 -5 22 -17z m380 -1 c2 -7 -6 -12 -17 -12 -21 0 -27 11 -14 24 9 9 26 2
31 -12z m87 9 c7 -12 -12 -24 -25 -16 -11 7 -4 25 10 25 5 0 11 -4 15 -9z
m-1305 -16 c0 -8 -7 -15 -15 -15 -8 0 -15 7 -15 15 0 8 7 15 15 15 8 0 15 -7
15 -15z m37 -7 c-3 -8 -6 -5 -6 6 -1 11 2 17 5 13 3 -3 4 -12 1 -19z m4291
-144 c2 -21 8 -43 13 -48 18 -20 9 -36 -21 -36 -30 0 -42 21 -20 35 13 8 13
48 -1 62 -6 6 -8 16 -4 23 13 21 30 3 33 -36z m562 -11 c0 -17 5 -33 12 -35
21 -7 -3 -28 -33 -28 -19 0 -29 5 -29 15 0 8 5 15 10 15 6 0 10 9 10 20 0 11
-4 20 -10 20 -17 0 -11 28 7 39 22 12 33 -3 33 -46z m108 24 c11 -22 11 -32 0
-54 -18 -38 -51 -42 -66 -7 -19 40 5 98 37 92 9 -2 22 -16 29 -31z m-498 -21
c0 -26 5 -35 21 -39 28 -7 19 -31 -13 -35 -30 -4 -41 23 -31 80 7 45 23 40 23
-6z m-381 4 c5 -16 13 -30 16 -30 3 0 11 14 16 30 11 30 29 41 29 18 0 -25
-33 -98 -44 -98 -10 0 -46 80 -46 103 0 19 19 4 29 -23z m511 -1 c14 -26 6
-65 -16 -73 -26 -10 -54 12 -54 42 0 50 49 72 70 31z m48 -4 c8 3 19 0 24 -7
6 -10 8 -9 8 4 0 9 5 20 10 23 13 8 13 -55 0 -75 -9 -13 -11 -13 -20 0 -9 13
-11 13 -20 0 -9 -13 -11 -13 -20 0 -5 8 -9 31 -9 50 1 19 3 27 6 17 3 -12 10
-16 21 -12z m-420 -32 c3 -42 2 -43 -27 -43 -37 0 -44 10 -35 55 6 32 10 36
33 33 23 -3 26 -8 29 -45z m352 -177 c0 -25 5 -48 10 -51 22 -13 10 -35 -19
-35 -35 0 -51 19 -27 32 13 8 15 13 5 24 -9 11 -9 21 1 44 18 43 30 37 30 -14z
m173 12 c19 -3 22 -10 24 -48 1 -42 1 -43 -10 -17 -14 35 -26 34 -33 -3 -10
-46 -24 -25 -24 34 0 51 12 84 18 53 2 -9 13 -17 25 -19z m299 -8 c12 -56 2
-82 -29 -78 -24 3 -27 8 -30 48 -4 58 2 72 29 68 16 -2 24 -12 30 -38z m97 9
c28 -49 -13 -115 -54 -86 -11 9 -17 27 -17 50 0 67 42 88 71 36z m-849 -23 c0
-25 5 -46 12 -48 21 -7 0 -38 -27 -38 -18 0 -25 5 -25 20 0 11 5 20 10 20 6 0
10 11 10 24 0 14 -4 28 -10 31 -18 11 -11 35 10 35 17 0 20 -7 20 -44z m662
32 c2 -7 3 -33 3 -58 0 -43 -1 -45 -30 -45 -34 0 -48 32 -21 47 20 11 21 34 0
42 -8 3 -12 10 -9 16 9 14 52 12 57 -2z m-843 -35 c12 36 31 51 31 24 0 -23
-31 -107 -40 -107 -12 0 -27 22 -39 62 -18 54 -2 72 19 22 l17 -39 12 38z
m357 7 c8 0 17 7 20 15 11 27 24 5 24 -40 0 -47 -15 -68 -25 -35 -9 27 -35 25
-43 -2 -5 -22 -6 -21 -13 6 -5 16 -5 42 -2 58 5 25 8 27 15 14 5 -9 16 -16 24
-16z m220 -37 c1 -64 -5 -75 -42 -71 -27 3 -29 7 -32 49 -3 53 16 82 52 77 18
-3 21 -10 22 -55z m-471 -3 c0 -41 -2 -45 -26 -48 -32 -4 -42 16 -33 65 6 30
10 34 33 31 24 -3 26 -7 26 -48z m-6201 -27 c15 -53 28 -657 15 -722 -6 -30
-7 -25 -9 34 -3 67 -3 68 -10 25 -6 -38 -7 -40 -10 -15 -1 17 -2 34 -1 39 1 4
-5 13 -12 20 -11 8 -16 49 -21 161 -7 167 -14 306 -21 408 l-5 67 34 0 c24 0
36 -5 40 -17z m13404 -386 c4 -20 -25 -34 -40 -19 -15 15 -1 44 19 40 10 -2
19 -11 21 -21z m-331 -24 c-3 -10 -5 -4 -5 12 0 17 2 24 5 18 2 -7 2 -21 0
-30z m-951 -81 c-4 -3 -12 9 -18 26 -11 29 -33 48 -23 20 5 -13 -21 -55 -29
-47 -2 2 5 24 17 49 l21 44 19 -43 c10 -23 16 -45 13 -49z m103 46 c0 -31 -3
-37 -8 -24 -7 18 -3 66 5 66 2 0 4 -19 3 -42z m-72 -30 c-2 -13 -4 -3 -4 22 0
25 2 35 4 23 2 -13 2 -33 0 -45z m863 36 c0 -14 -4 -23 -9 -20 -5 3 -7 15 -4
26 7 28 13 25 13 -6z m-2075 -21 c-4 -66 -4 -68 -15 -57 -12 12 -3 94 10 94 4
0 6 -17 5 -37z m72 -22 c1 -2 9 2 18 9 19 16 19 8 -1 -38 -9 -20 -18 -32 -19
-27 -2 6 -6 23 -10 38 -4 20 -10 27 -20 23 -11 -4 -15 3 -15 26 l0 31 22 -29
c12 -16 23 -31 25 -33z m117 0 c-4 -17 -10 -31 -15 -31 -11 0 -12 74 -2 84 12
12 23 -21 17 -53z m446 19 c0 -22 -4 -40 -10 -40 -5 0 -10 18 -10 40 0 22 5
40 10 40 6 0 10 -18 10 -40z m170 -2 c-1 -35 -3 -40 -11 -25 -10 17 -5 67 6
67 3 0 5 -19 5 -42z m547 -5 c-4 -17 -4 -17 -12 0 -4 9 -4 25 0 35 8 16 8 16
12 0 3 -10 3 -26 0 -35z m-10340 15 c-3 -8 -6 -5 -6 6 -1 11 2 17 5 13 3 -3 4
-12 1 -19z m8071 -31 c2 -28 -1 -47 -7 -47 -6 0 -11 15 -11 34 0 19 -3 42 -7
52 -4 12 -2 15 8 12 9 -3 15 -22 17 -51z m57 -13 c-5 -34 -9 -43 -16 -33 -18
29 -6 110 14 90 5 -5 7 -29 2 -57z m465 46 c0 -11 5 -20 10 -20 6 0 10 9 10
21 0 11 5 17 10 14 6 -3 10 -27 10 -52 l0 -45 -20 23 c-16 20 -19 21 -20 7 0
-9 -4 -20 -10 -23 -6 -4 -10 13 -10 44 0 28 5 51 10 51 6 0 10 -9 10 -20z m82
-26 c3 -44 -2 -61 -16 -47 -9 10 -7 93 3 93 5 0 11 -21 13 -46z m68 14 c0 -18
-5 -40 -10 -48 -7 -11 -10 -2 -10 33 0 26 5 47 10 47 6 0 10 -15 10 -32z m390
-19 c0 -24 -4 -38 -10 -34 -5 3 -10 24 -10 46 0 24 4 38 10 34 6 -3 10 -24 10
-46z m560 15 c0 -21 -4 -33 -10 -29 -17 10 -11 65 7 65 2 0 3 -16 3 -36z m209
-6 c0 -31 -3 -37 -8 -24 -7 18 -3 66 5 66 2 0 4 -19 3 -42z m617 -5 c-8 -8
-12 -3 -21 27 l-7 25 17 -23 c9 -13 14 -26 11 -29z m54 20 c0 -20 -3 -24 -11
-16 -7 7 -9 19 -6 27 10 24 17 19 17 -11z m40 17 c0 -5 -4 -10 -10 -10 -5 0
-10 5 -10 10 0 6 5 10 10 10 6 0 10 -4 10 -10z m27 -22 c-3 -7 -5 -2 -5 12 0
14 2 19 5 13 2 -7 2 -19 0 -25z m40 0 c-3 -7 -5 -2 -5 12 0 14 2 19 5 13 2 -7
2 -19 0 -25z m52 -13 c0 -5 -6 -1 -14 9 -8 11 -15 24 -15 30 0 5 7 1 15 -10 8
-10 14 -23 14 -29z m291 35 c0 -5 -2 -10 -4 -10 -3 0 -8 5 -11 10 -3 6 -1 10
4 10 6 0 11 -4 11 -10z m-4230 -61 c0 -37 -4 -58 -10 -54 -18 11 -12 115 7
115 2 0 3 -27 3 -61z m91 43 c-9 -3 -9 -8 3 -21 9 -9 17 -28 18 -42 3 -20 -1
-24 -27 -26 -16 -1 -22 1 -12 3 21 7 23 44 2 44 -9 0 -15 9 -15 23 0 30 7 37
28 29 11 -4 12 -7 3 -10z m349 8 c0 -5 -2 -10 -4 -10 -3 0 -8 5 -11 10 -3 6
-1 10 4 10 6 0 11 -4 11 -10z m494 -6 c8 -20 8 -69 0 -77 -5 -5 -21 1 -53 20
-6 4 32 73 40 73 4 0 10 -7 13 -16z m229 -37 c4 -29 3 -46 -3 -42 -12 8 -24
71 -15 85 10 16 11 12 18 -43z m48 -30 c-13 -13 -15 41 -3 70 5 13 8 8 10 -21
2 -21 -1 -43 -7 -49z m279 38 c0 -25 -4 -45 -10 -45 -5 0 -10 9 -10 20 0 11
-5 20 -11 20 -7 0 -9 -9 -6 -21 3 -13 1 -19 -6 -16 -12 4 -19 64 -10 80 2 4
15 7 29 7 22 0 24 -4 24 -45z m225 5 c0 -40 -11 -53 -21 -25 -7 18 3 65 14 65
4 0 7 -18 7 -40z m1325 0 c0 -13 -1 -13 -10 0 -5 8 -10 22 -10 30 0 13 1 13
10 0 5 -8 10 -22 10 -30z m142 -23 c-9 -34 -24 -1 -16 35 7 32 8 32 14 8 3
-14 4 -33 2 -43z m48 38 c0 -8 -4 -17 -10 -20 -6 -4 -10 5 -10 20 0 15 4 24
10 20 6 -3 10 -12 10 -20z m44 -29 c-7 -19 -21 -21 -21 -3 0 6 -3 23 -8 37
l-7 25 21 -22 c12 -12 18 -29 15 -37z m316 38 c0 -8 -4 -12 -10 -9 -5 3 -10
10 -10 16 0 5 5 9 10 9 6 0 10 -7 10 -16z m-3940 -13 c0 -22 -28 -91 -36 -91
-4 0 -4 19 0 41 4 26 2 46 -5 55 -9 11 -6 14 15 14 19 0 26 -5 26 -19z m69 5
c7 -8 11 -32 9 -53 -3 -33 -7 -38 -30 -41 -17 -2 -28 2 -28 8 0 7 7 10 15 6
10 -4 15 1 15 14 0 11 -6 20 -12 21 -10 0 -10 2 0 6 14 6 16 33 2 33 -5 0 -10
5 -10 10 0 15 26 12 39 -4z m171 3 c0 -6 -6 -9 -14 -6 -8 3 -22 -3 -31 -13
-21 -23 -11 -60 16 -60 10 0 19 -4 19 -9 0 -13 -52 -4 -61 11 -12 18 -11 45 1
69 12 21 70 28 70 8z m296 -13 c11 -45 1 -71 -28 -74 -16 -2 -28 1 -28 7 0 6
6 8 14 5 11 -4 14 4 13 33 0 21 -5 41 -11 45 -6 4 -1 8 11 8 16 0 25 -8 29
-24z m224 11 c0 -7 9 -18 21 -25 23 -14 23 -53 0 -60 -10 -3 -12 0 -8 11 3 8
-3 23 -14 33 -20 18 -26 54 -9 54 6 0 10 -6 10 -13z m2013 -6 c2 -10 1 -25 -4
-32 -7 -11 -9 -11 -9 3 0 9 -3 23 -6 32 -3 9 -2 16 4 16 5 0 12 -9 15 -19z
m77 -11 c0 -16 -2 -30 -4 -30 -2 0 -6 14 -8 30 -3 17 -1 30 4 30 4 0 8 -13 8
-30z m40 6 c0 -14 -4 -28 -10 -31 -6 -4 -10 7 -10 24 0 17 5 31 10 31 6 0 10
-11 10 -24z m39 -8 c0 -28 -2 -30 -9 -13 -12 28 -12 45 0 45 6 0 10 -15 9 -32z
m361 6 c0 -8 -4 -12 -10 -9 -5 3 -10 13 -10 21 0 8 5 12 10 9 6 -3 10 -13 10
-21z m-3510 -23 c0 -27 5 -41 17 -45 12 -5 13 -10 5 -18 -23 -23 -42 0 -42 52
0 27 5 50 10 50 6 0 10 -18 10 -39z m3029 -3 c1 -5 -3 -8 -9 -8 -5 0 -10 12
-9 28 0 24 1 25 9 7 5 -11 9 -23 9 -27z m-1969 -4 c0 -13 4 -24 9 -24 17 0 22
19 11 40 -13 25 5 28 19 3 9 -16 11 -16 31 2 22 20 22 20 36 0 14 -19 16 -19
25 -2 11 18 39 24 39 7 0 -5 -5 -10 -11 -10 -7 0 -9 -10 -7 -25 6 -29 -9 -45
-18 -20 -5 13 -9 14 -15 4 -9 -16 -51 -18 -61 -5 -4 6 -13 4 -22 -3 -9 -8 -16
-10 -16 -5 -1 5 -9 -1 -19 -13 -19 -22 -19 -22 -24 -2 -7 28 3 90 14 83 5 -3
9 -16 9 -30z m248 6 c5 -30 -25 -55 -45 -39 -17 14 -17 56 0 62 24 11 42 1 45
-23z m52 6 c7 -14 9 -32 5 -43 -5 -12 -9 -14 -12 -5 -3 6 -9 10 -14 6 -5 -3
-9 11 -9 30 0 42 11 46 30 12z m-1258 0 c11 -16 10 -66 -2 -66 -5 0 -10 11
-10 24 0 37 -17 41 -25 6 -4 -16 -11 -30 -16 -30 -10 0 -12 40 -4 62 6 16 47
19 57 4z m434 -11 c8 -31 -12 -57 -40 -53 -13 2 -22 12 -24 26 -5 36 5 52 32
52 19 0 27 -7 32 -25z m-6704 -39 c13 -22 -5 -67 -33 -84 -27 -17 -31 -12 -32
37 -2 35 -5 41 -29 46 -33 8 -36 23 -6 34 27 10 87 -10 100 -33z m123 14 c3
-5 -1 -10 -9 -10 -9 0 -16 5 -16 10 0 6 4 10 9 10 6 0 13 -4 16 -10z m7025
-10 c0 -5 -4 -10 -10 -10 -5 0 -10 5 -10 10 0 6 5 10 10 10 6 0 10 -4 10 -10z
m-655 -9 c3 -5 1 -12 -5 -16 -5 -3 -10 1 -10 9 0 18 6 21 15 7z m-6315 -16 c0
-8 -4 -15 -9 -15 -13 0 -22 16 -14 24 11 11 23 6 23 -9z m-350 -25 c0 -5 -4
-10 -10 -10 -5 0 -10 5 -10 10 0 6 5 10 10 10 6 0 10 -4 10 -10z m44 -35 c6
-18 -7 -27 -28 -19 -16 6 -21 25 -10 37 9 8 32 -2 38 -18z m266 -5 c0 -11 -3
-20 -6 -20 -3 0 -17 9 -31 20 l-26 20 32 0 c24 0 31 -4 31 -20z m-2159 -90 c5
0 8 -12 8 -27 -2 -28 -2 -28 -7 -3 -4 23 -5 24 -13 5 -5 -14 -7 -5 -7 30 1 28
3 38 5 23 2 -16 9 -28 14 -28z"/>
<path d="M657 8363 c-4 -3 -7 -21 -7 -39 0 -28 4 -32 30 -36 37 -6 40 -3 40
38 0 20 -6 34 -16 38 -20 8 -39 8 -47 -1z"/>
<path d="M1151 8345 c1 -19 18 -51 18 -35 0 8 -4 22 -9 30 -5 8 -9 11 -9 5z"/>
<path d="M1204 8336 c-8 -22 -2 -27 16 -16 12 7 12 12 3 21 -10 10 -14 9 -19
-5z"/>
<path d="M1304 8335 c-3 -8 -1 -27 4 -42 10 -27 10 -26 11 15 1 43 -5 54 -15
27z"/>
<path d="M1383 8310 c0 -25 2 -35 4 -22 2 12 2 32 0 45 -2 12 -4 2 -4 -23z"/>
<path d="M8695 8340 c-4 -6 -3 -16 3 -22 6 -6 12 -6 17 2 4 6 3 16 -3 22 -6 6
-12 6 -17 -2z"/>
<path d="M890 8296 c0 -31 6 -34 13 -6 3 11 1 23 -4 26 -5 3 -9 -6 -9 -20z"/>
<path d="M940 8308 c0 -7 5 -20 10 -28 8 -12 10 -11 10 7 0 12 -4 25 -10 28
-5 3 -10 0 -10 -7z"/>
<path d="M1261 8304 c0 -11 3 -14 6 -6 3 7 2 16 -1 19 -3 4 -6 -2 -5 -13z"/>
<path d="M1002 8290 c0 -14 2 -19 5 -12 2 6 2 18 0 25 -3 6 -5 1 -5 -13z"/>
<path d="M1231 8300 c0 -8 4 -22 9 -30 12 -18 12 -2 0 25 -6 13 -9 15 -9 5z"/>
<path d="M1582 8285 c0 -16 2 -22 5 -12 2 9 2 23 0 30 -3 6 -5 -1 -5 -18z"/>
<path d="M1622 8290 c0 -14 2 -19 5 -12 2 6 2 18 0 25 -3 6 -5 1 -5 -13z"/>
<path d="M1672 8285 c0 -16 2 -22 5 -12 2 9 2 23 0 30 -3 6 -5 -1 -5 -18z"/>
<path d="M1191 8287 c-1 -11 -6 -15 -13 -11 -7 5 -8 3 -3 -5 10 -16 29 2 22
21 -4 8 -6 7 -6 -5z"/>
<path d="M1721 8284 c0 -11 3 -14 6 -6 3 7 2 16 -1 19 -3 4 -6 -2 -5 -13z"/>
<path d="M1047 8259 c6 -23 9 -24 16 -5 3 8 0 17 -7 19 -10 4 -12 -1 -9 -14z"/>
<path d="M7773 8190 c0 -25 2 -35 4 -22 2 12 2 32 0 45 -2 12 -4 2 -4 -23z"/>
<path d="M8833 8185 c-3 -9 -3 -18 -1 -21 3 -3 8 4 11 16 6 23 -1 27 -10 5z"/>
<path d="M9326 7874 c-9 -24 -7 -84 3 -84 12 0 21 26 21 60 0 33 -15 48 -24
24z"/>
<path d="M9395 7871 c-8 -26 5 -92 16 -85 12 7 12 91 0 99 -5 3 -12 -4 -16
-14z"/>
<path d="M9690 7830 c0 -27 5 -50 10 -50 6 0 10 23 10 50 0 28 -4 50 -10 50
-5 0 -10 -22 -10 -50z"/>
<path d="M10130 7830 c0 -27 5 -50 10 -50 6 0 10 23 10 50 0 28 -4 50 -10 50
-5 0 -10 -22 -10 -50z"/>
<path d="M10212 7868 c-14 -14 -16 -74 -3 -83 10 -5 28 82 19 90 -2 3 -10 -1
-16 -7z"/>
<path d="M10250 7819 c0 -31 4 -48 10 -44 6 3 10 26 10 51 0 24 -4 44 -10 44
-5 0 -10 -23 -10 -51z"/>
<path d="M10560 7795 c0 -67 3 -79 25 -100 13 -14 29 -25 35 -25 6 0 22 11 35
25 22 21 25 33 25 100 l0 75 -60 0 -60 0 0 -75z"/>
<path d="M9447 7838 c-6 -19 4 -49 14 -42 12 7 12 41 0 48 -5 4 -11 0 -14 -6z"/>
<path d="M9497 7843 c-10 -9 -9 -51 2 -57 12 -8 24 45 13 56 -4 4 -11 5 -15 1z"/>
<path d="M9545 7830 c-7 -23 2 -43 16 -35 12 8 12 55 0 55 -5 0 -12 -9 -16
-20z"/>
<path d="M9797 7843 c-11 -10 -8 -53 3 -53 6 0 10 14 10 30 0 31 -2 35 -13 23z"/>
<path d="M9837 7818 c-7 -25 0 -41 14 -33 12 8 12 42 0 49 -5 3 -11 -4 -14
-16z"/>
<path d="M9880 7828 c0 -8 6 -23 14 -33 12 -16 16 -17 30 -6 18 15 22 41 6 41
-5 0 -10 -5 -10 -12 0 -6 -9 -3 -20 7 -16 14 -20 15 -20 3z"/>
<path d="M9960 7821 c-12 -24 -13 -41 -2 -41 8 0 32 43 32 55 0 13 -21 3 -30
-14z"/>
<path d="M7628 7775 c-25 -22 -39 -66 -20 -65 10 1 54 71 50 81 -2 4 -15 -3
-30 -16z"/>
<path d="M7537 7662 c-10 -10 -17 -23 -17 -28 0 -5 -34 -45 -76 -89 -76 -80
-76 -80 -70 -44 8 44 -1 74 -18 60 -7 -6 -59 -12 -116 -15 -108 -6 -143 -10
-160 -21 -6 -3 -10 1 -10 9 0 9 -7 16 -15 16 -8 0 -15 -4 -15 -10 0 -5 -9 -10
-19 -10 -11 0 -23 -5 -26 -11 -4 -6 -13 -8 -20 -5 -8 3 -14 -6 -17 -25 -6 -36
-4 -37 58 -43 56 -5 104 -16 104 -23 0 -16 -38 -30 -67 -26 -18 3 -40 2 -50
-2 -10 -5 -24 -7 -30 -6 -7 1 -13 -7 -13 -19 0 -14 7 -20 23 -21 137 -7 242
-32 299 -71 14 -10 30 -18 35 -18 20 0 92 77 99 105 4 17 15 42 25 57 11 14
19 31 19 37 0 6 4 11 8 11 5 0 16 15 25 33 10 17 30 52 46 77 43 65 40 129 -2
82z m-353 -257 c-4 -8 -10 -12 -15 -9 -14 8 -10 24 6 24 9 0 12 -6 9 -15z"/>
<path d="M6880 7505 c1 -26 2 -28 11 -12 8 14 8 22 0 30 -8 8 -11 3 -11 -18z"/>
<path d="M6800 7503 c0 -8 12 -13 30 -13 19 0 30 5 30 14 0 10 -10 14 -30 14
-18 -1 -30 -6 -30 -15z"/>
<path d="M6930 7501 c0 -6 4 -13 10 -16 6 -3 7 1 4 9 -7 18 -14 21 -14 7z"/>
<path d="M8596 7418 c-100 -107 -129 -138 -201 -222 -33 -38 -77 -87 -97 -110
-44 -48 -46 -58 -15 -83 13 -10 30 -31 39 -48 23 -42 92 -192 112 -245 10 -25
24 -58 32 -73 8 -16 14 -33 14 -39 0 -16 59 -136 70 -143 6 -3 10 -14 10 -25
0 -28 98 -212 106 -199 11 18 27 1250 17 1260 -6 6 -40 -24 -87 -73z"/>
<path d="M6750 7395 c0 -8 11 -12 28 -11 37 3 39 20 2 22 -18 1 -30 -3 -30
-11z"/>
<path d="M9270 7358 c0 -38 3 -49 10 -38 13 20 13 90 0 90 -5 0 -10 -24 -10
-52z"/>
<path d="M9340 7359 c0 -31 4 -48 10 -44 6 3 10 26 10 51 0 24 -4 44 -10 44
-5 0 -10 -23 -10 -51z"/>
<path d="M9637 7404 c-10 -11 -9 -94 2 -94 14 0 23 53 13 79 -4 12 -11 19 -15
15z"/>
<path d="M9704 7396 c-8 -22 0 -81 11 -81 6 0 11 21 13 48 3 45 -12 65 -24 33z"/>
<path d="M9907 7404 c-10 -10 -9 -94 2 -94 11 0 18 49 11 78 -3 13 -8 20 -13
16z"/>
<path d="M6830 7389 c0 -8 53 -19 91 -19 21 0 27 4 23 15 -5 11 -20 14 -60 12
-30 -1 -54 -5 -54 -8z"/>
<path d="M9757 7371 c-9 -45 -9 -61 2 -61 15 0 21 32 13 65 l-8 30 -7 -34z"/>
<path d="M10147 7394 c-4 -4 -7 -14 -7 -23 0 -11 3 -12 11 -4 6 6 10 16 7 23
-2 6 -7 8 -11 4z"/>
<path d="M10197 7393 c-10 -10 -8 -83 2 -83 5 0 11 20 13 45 3 43 -1 53 -15
38z"/>
<path d="M10240 7350 c0 -32 4 -49 10 -45 6 3 10 24 10 45 0 21 -4 42 -10 45
-6 4 -10 -13 -10 -45z"/>
<path d="M10709 7353 c-1 -21 -3 -51 -5 -66 -2 -21 6 -37 29 -63 l32 -34 26
23 c22 20 27 34 32 100 l5 77 -59 0 -59 0 -1 -37z"/>
<path d="M9390 7345 c0 -14 5 -25 10 -25 6 0 10 11 10 25 0 14 -4 25 -10 25
-5 0 -10 -11 -10 -25z"/>
<path d="M9438 7353 c-6 -23 1 -45 13 -37 12 7 12 54 0 54 -5 0 -11 -8 -13
-17z"/>
<path d="M9490 7345 c0 -14 5 -25 10 -25 6 0 10 11 10 25 0 14 -4 25 -10 25
-5 0 -10 -11 -10 -25z"/>
<path d="M9805 7360 c-4 -6 -3 -25 1 -43 7 -32 7 -32 15 -7 10 36 10 60 0 60
-6 0 -13 -5 -16 -10z"/>
<path d="M9847 7328 c-6 -45 -2 -62 14 -53 11 8 12 95 0 95 -4 0 -11 -19 -14
-42z"/>
<path d="M9950 7341 c0 -17 5 -31 10 -31 6 0 10 11 10 24 0 14 -4 28 -10 31
-6 4 -10 -7 -10 -24z"/>
<path d="M10110 7336 c-6 -9 -10 -21 -8 -28 3 -8 9 -4 17 10 15 28 9 39 -9 18z"/>
<path d="M1680 7253 c0 -13 5 -23 10 -23 13 0 13 11 0 30 -8 12 -10 11 -10 -7z"/>
<path d="M9160 6830 c0 -27 4 -50 9 -50 12 0 17 35 12 73 -6 46 -21 30 -21
-23z"/>
<path d="M9237 6873 c-11 -10 -8 -81 3 -88 6 -4 10 13 10 44 0 52 -1 56 -13
44z"/>
<path d="M9526 6864 c-9 -24 -7 -72 3 -78 11 -7 21 18 21 54 0 33 -15 48 -24
24z"/>
<path d="M9935 6857 c-4 -10 -5 -21 -1 -24 10 -10 18 4 13 24 -4 17 -4 17 -12
0z"/>
<path d="M10107 6863 c-4 -7 -3 -47 2 -88 3 -25 21 24 21 58 0 33 -12 49 -23
30z"/>
<path d="M10187 6863 c-11 -10 -8 -83 3 -83 6 0 10 20 10 45 0 46 -2 50 -13
38z"/>
<path d="M10230 6818 c0 -38 3 -49 10 -38 13 20 13 77 0 85 -6 4 -10 -14 -10
-47z"/>
<path d="M10536 6823 c-10 -66 -7 -91 20 -122 32 -38 46 -39 73 -5 17 21 21
41 21 95 l0 69 -54 0 -53 0 -7 -37z"/>
<path d="M9280 6815 c0 -14 5 -25 10 -25 6 0 10 11 10 25 0 14 -4 25 -10 25
-5 0 -10 -11 -10 -25z"/>
<path d="M9330 6810 c0 -16 5 -30 10 -30 6 0 10 14 10 30 0 17 -4 30 -10 30
-5 0 -10 -13 -10 -30z"/>
<path d="M9387 6833 c-10 -10 -8 -43 2 -43 9 0 21 24 21 41 0 11 -14 12 -23 2z"/>
<path d="M9627 6833 c-10 -9 -9 -41 2 -47 5 -3 11 8 13 24 4 29 -1 37 -15 23z"/>
<path d="M9796 6823 c-14 -14 -20 -15 -23 -5 -4 10 -8 10 -20 1 -12 -10 -16
-10 -24 2 -7 11 -9 9 -9 -8 0 -28 14 -37 40 -23 13 7 20 7 20 0 0 -17 19 -11
30 11 16 29 8 42 -14 22z"/>
<path d="M9670 6804 c0 -14 4 -23 10 -19 6 3 10 15 10 26 0 10 -4 19 -10 19
-5 0 -10 -12 -10 -26z"/>
<path d="M9895 6799 c-4 -6 -5 -13 -2 -16 7 -7 27 6 27 18 0 12 -17 12 -25 -2z"/>
<path d="M1520 6708 c0 -32 3 -39 10 -28 13 20 13 70 0 70 -5 0 -10 -19 -10
-42z"/>
<path d="M1602 6650 c0 -14 2 -19 5 -12 2 6 2 18 0 25 -3 6 -5 1 -5 -13z"/>
<path d="M9102 6308 c2 -24 8 -43 13 -43 6 0 11 19 13 43 3 33 0 42 -13 42
-13 0 -16 -9 -13 -42z"/>
<path d="M9177 6343 c-9 -8 -9 -46 -1 -67 10 -27 24 -7 24 35 0 37 -8 48 -23
32z"/>
<path d="M9470 6298 c0 -38 3 -49 10 -38 13 20 13 90 0 90 -5 0 -10 -24 -10
-52z"/>
<path d="M9540 6299 c0 -31 4 -48 10 -44 6 3 10 26 10 51 0 24 -4 44 -10 44
-5 0 -10 -23 -10 -51z"/>
<path d="M9737 6344 c-10 -11 -9 -94 2 -94 13 0 23 67 13 85 -4 9 -11 12 -15
9z"/>
<path d="M10178 6344 c-5 -4 -8 -28 -8 -53 0 -32 3 -42 11 -34 5 5 9 29 7 53
-2 23 -6 38 -10 34z"/>
<path d="M9590 6295 c0 -28 4 -44 10 -40 6 3 10 21 10 40 0 19 -4 37 -10 40
-6 4 -10 -12 -10 -40z"/>
<path d="M9920 6319 c0 -11 5 -17 10 -14 6 3 10 13 10 21 0 8 -4 14 -10 14 -5
0 -10 -9 -10 -21z"/>
<path d="M10115 6329 c-4 -6 -3 -15 3 -21 6 -6 11 -4 15 6 7 18 -9 31 -18 15z"/>
<path d="M10216 6333 c-9 -10 -7 -83 3 -83 11 0 21 25 21 55 0 25 -12 39 -24
28z"/>
<path d="M10693 6334 c-9 -4 -13 -29 -13 -73 0 -58 3 -71 23 -89 30 -28 38
-28 67 3 20 21 24 36 24 92 l1 68 -45 2 c-25 1 -51 0 -57 -3z"/>
<path d="M9226 6304 c-7 -18 0 -34 15 -34 12 0 12 37 0 44 -5 3 -12 -1 -15
-10z"/>
<path d="M9277 6313 c-11 -10 -8 -53 3 -53 6 0 10 14 10 30 0 31 -2 35 -13 23z"/>
<path d="M9325 6300 c-7 -23 2 -43 16 -35 12 8 12 42 0 50 -5 3 -12 -4 -16
-15z"/>
<path d="M9640 6279 c0 -17 4 -28 10 -24 6 3 10 17 10 31 0 13 -4 24 -10 24
-5 0 -10 -14 -10 -31z"/>
<path d="M9680 6266 c0 -25 5 -46 10 -46 6 0 10 16 10 35 0 19 0 38 1 42 0 4
-4 9 -10 11 -7 2 -11 -14 -11 -42z"/>
<path d="M9780 6275 c0 -14 5 -25 10 -25 6 0 10 11 10 25 0 14 -4 25 -10 25
-5 0 -10 -11 -10 -25z"/>
<path d="M9887 6273 c-10 -9 -9 -23 2 -23 5 0 11 7 15 15 5 15 -5 20 -17 8z"/>
<path d="M10080 6264 c0 -8 5 -12 10 -9 6 3 10 10 10 16 0 5 -4 9 -10 9 -5 0
-10 -7 -10 -16z"/>
<path d="M9361 5814 c0 -11 3 -14 6 -6 3 7 2 16 -1 19 -3 4 -6 -2 -5 -13z"/>
<path d="M9650 5780 c0 -27 5 -50 10 -50 6 0 10 23 10 50 0 28 -4 50 -10 50
-5 0 -10 -22 -10 -50z"/>
<path d="M10087 5824 c-10 -11 -9 -94 2 -94 5 0 11 17 14 38 4 38 -4 68 -16
56z"/>
<path d="M9555 5807 c-9 -22 -2 -62 10 -60 6 1 11 14 13 29 4 32 -14 56 -23
31z"/>
<path d="M10154 5796 c-7 -29 4 -69 17 -61 12 8 12 85 -1 85 -5 0 -12 -11 -16
-24z"/>
<path d="M10200 5775 c0 -25 4 -45 9 -45 12 0 23 48 16 71 -11 34 -25 20 -25
-26z"/>
<path d="M10473 5814 c-9 -4 -13 -27 -13 -67 0 -51 4 -67 24 -89 30 -35 38
-35 71 3 23 28 26 39 23 93 l-3 61 -45 2 c-25 1 -51 0 -57 -3z"/>
<path d="M9470 5765 c0 -31 8 -32 20 -2 l9 22 0 -22 c1 -27 17 -38 25 -18 9
25 -5 45 -30 45 -19 0 -24 -5 -24 -25z"/>
<path d="M9750 5765 c0 -14 5 -25 10 -25 6 0 10 11 10 25 0 14 -4 25 -10 25
-5 0 -10 -11 -10 -25z"/>
<path d="M9797 5783 c-10 -9 -9 -53 2 -53 12 0 20 35 12 49 -4 6 -10 8 -14 4z"/>
<path d="M9916 5773 c-6 -15 -8 -15 -16 -3 -7 12 -12 12 -21 3 -9 -9 -16 -10
-26 -2 -16 14 -17 5 -2 -22 8 -16 13 -18 25 -8 11 9 17 9 28 0 12 -10 17 -8
25 8 6 11 11 24 11 30 0 17 -17 13 -24 -6z"/>
<path d="M1840 5750 c0 -11 7 -20 15 -20 8 0 15 9 15 20 0 11 -7 20 -15 20 -8
0 -15 -9 -15 -20z"/>
<path d="M9412 5750 c0 -14 2 -19 5 -12 2 6 2 18 0 25 -3 6 -5 1 -5 -13z"/>
<path d="M1680 5740 c0 -5 5 -10 11 -10 5 0 7 5 4 10 -3 6 -8 10 -11 10 -2 0
-4 -4 -4 -10z"/>
<path d="M1680 5698 c0 -17 2 -18 15 -8 8 7 15 14 15 15 0 2 -7 5 -15 9 -10 4
-15 -1 -15 -16z"/>
<path d="M1680 5619 c0 -5 5 -7 10 -4 6 3 10 8 10 11 0 2 -4 4 -10 4 -5 0 -10
-5 -10 -11z"/>
<path d="M1840 5470 c0 -11 7 -20 15 -20 17 0 18 2 9 24 -9 23 -24 20 -24 -4z"/>
<path d="M1920 5360 c0 -5 -18 -10 -40 -10 -33 0 -40 -3 -40 -20 0 -11 3 -20
8 -20 4 0 12 -10 17 -22 14 -31 35 -35 35 -6 0 14 12 33 29 48 17 13 28 27 25
32 -7 11 -34 10 -34 -2z"/>
<path d="M1735 5320 c-3 -5 1 -10 9 -10 9 0 16 5 16 10 0 6 -4 10 -9 10 -6 0
-13 -4 -16 -10z"/>
<path d="M1783 5294 c-8 -21 13 -42 28 -27 13 13 5 43 -11 43 -6 0 -13 -7 -17
-16z"/>
<path d="M9200 5301 c0 -6 5 -13 10 -16 6 -3 10 1 10 9 0 9 -4 16 -10 16 -5 0
-10 -4 -10 -9z"/>
<path d="M9500 5265 c0 -25 5 -45 10 -45 6 0 10 20 10 45 0 25 -4 45 -10 45
-5 0 -10 -20 -10 -45z"/>
<path d="M9570 5265 c0 -25 5 -45 10 -45 6 0 10 20 10 45 0 25 -4 45 -10 45
-5 0 -10 -20 -10 -45z"/>
<path d="M9760 5265 c0 -25 4 -45 9 -45 11 0 22 55 15 75 -12 30 -24 14 -24
-30z"/>
<path d="M10050 5285 c0 -14 5 -25 10 -25 6 0 10 11 10 25 0 14 -4 25 -10 25
-5 0 -10 -11 -10 -25z"/>
<path d="M10146 5294 c-9 -23 -7 -62 3 -68 10 -6 21 26 21 62 0 25 -15 30 -24
6z"/>
<path d="M9400 5266 c0 -19 4 -37 9 -40 10 -7 21 42 14 61 -10 25 -23 13 -23
-21z"/>
<path d="M9620 5260 c0 -25 4 -39 10 -35 6 3 10 19 10 35 0 16 -4 32 -10 35
-6 4 -10 -10 -10 -35z"/>
<path d="M9996 5284 c-4 -10 -1 -14 6 -12 15 5 23 28 10 28 -5 0 -13 -7 -16
-16z"/>
<path d="M10190 5254 c0 -27 4 -43 10 -39 6 3 10 24 10 46 0 21 -4 39 -10 39
-5 0 -10 -21 -10 -46z"/>
<path d="M13184 5292 c-43 -6 -49 -123 -8 -171 14 -17 29 -31 32 -31 4 0 19
11 33 24 22 20 27 37 33 96 4 40 5 74 2 77 -6 6 -63 9 -92 5z"/>
<path d="M1840 5262 c0 -22 -5 -32 -15 -32 -19 0 -19 -14 -1 -29 12 -10 16 -5
21 34 4 25 5 49 1 52 -3 4 -6 -8 -6 -25z"/>
<path d="M9350 5251 c0 -17 5 -31 10 -31 6 0 10 11 10 24 0 14 -4 28 -10 31
-6 4 -10 -7 -10 -24z"/>
<path d="M9718 5274 c-5 -4 -8 -28 -8 -53 0 -32 3 -42 11 -34 5 5 9 29 7 53
-2 23 -6 38 -10 34z"/>
<path d="M9313 5255 c-8 -22 6 -33 17 -15 13 20 12 30 0 30 -6 0 -13 -7 -17
-15z"/>
<path d="M9668 5258 c-3 -7 -2 -24 0 -37 5 -23 6 -24 13 -6 11 28 11 55 0 55
-5 0 -11 -5 -13 -12z"/>
<path d="M9810 5240 c0 -18 4 -29 10 -25 6 3 10 15 10 25 0 10 -4 22 -10 25
-6 4 -10 -7 -10 -25z"/>
<path d="M10094 5247 c-8 -21 2 -35 16 -21 5 5 6 15 0 24 -8 12 -10 12 -16 -3z"/>
<path d="M9255 5241 c-3 -5 -1 -12 5 -16 5 -3 10 1 10 9 0 18 -6 21 -15 7z"/>
<path d="M9967 5244 c-4 -4 -7 -14 -7 -23 0 -11 3 -12 11 -4 6 6 10 16 7 23
-2 6 -7 8 -11 4z"/>
<path d="M5713 5203 c-19 -7 -16 -50 3 -57 21 -8 22 -7 30 32 7 32 -2 38 -33
25z"/>
<path d="M1910 5041 c0 -31 21 -46 39 -28 6 6 11 21 11 34 0 18 -6 23 -25 23
-21 0 -25 -5 -25 -29z"/>
<path d="M9395 4770 c-9 -42 -21 -45 -30 -7 -4 17 -9 26 -12 19 -6 -16 16 -72
28 -72 8 0 39 64 39 81 0 22 -19 6 -25 -21z"/>
<path d="M9540 4748 c0 -38 3 -49 10 -38 13 20 13 77 0 85 -6 4 -10 -14 -10
-47z"/>
<path d="M9637 4793 c-11 -10 -8 -81 3 -88 6 -4 10 13 10 44 0 52 -1 56 -13
44z"/>
<path d="M10067 4793 c-11 -10 -8 -81 3 -88 6 -4 10 13 10 44 0 52 -1 56 -13
44z"/>
<path d="M10136 4784 c-9 -24 -7 -62 4 -69 6 -3 10 0 10 8 0 8 3 29 6 46 7 32
-9 44 -20 15z"/>
<path d="M10180 4744 c0 -27 4 -43 10 -39 6 3 10 24 10 46 0 21 -4 39 -10 39
-5 0 -10 -21 -10 -46z"/>
<path d="M10436 4736 c-8 -59 -2 -78 36 -113 l24 -23 26 28 c22 23 27 38 29
92 l3 65 -56 3 -56 3 -6 -55z"/>
<path d="M9454 4745 c-3 -8 -4 -20 -1 -27 4 -8 8 -4 13 11 l7 23 12 -28 c11
-25 14 -26 20 -11 4 9 5 24 1 32 -7 19 -45 20 -52 0z"/>
<path d="M9730 4735 c0 -14 5 -25 10 -25 6 0 10 11 10 25 0 14 -4 25 -10 25
-5 0 -10 -11 -10 -25z"/>
<path d="M9777 4753 c-10 -9 -9 -43 2 -43 5 0 11 6 14 13 6 17 -7 40 -16 30z"/>
<path d="M9901 4746 c-11 -13 -16 -14 -22 -5 -6 10 -11 10 -22 0 -12 -9 -16
-9 -20 1 -2 7 -7 10 -11 6 -4 -3 -2 -16 4 -28 9 -17 14 -19 26 -9 11 9 17 9
28 0 12 -10 17 -8 26 9 15 28 8 47 -9 26z"/>
<path d="M9243 4260 c-8 -42 -19 -46 -27 -10 -3 17 -10 30 -16 30 -6 0 -4 -14
5 -36 8 -20 15 -38 15 -40 0 -14 22 0 29 19 19 52 22 67 11 67 -6 0 -13 -14
-17 -30z"/>
<path d="M9388 4258 c-7 -42 1 -75 13 -56 11 17 11 75 0 82 -5 3 -11 -9 -13
-26z"/>
<path d="M9487 4283 c-11 -10 -8 -83 3 -83 6 0 10 20 10 45 0 46 -2 50 -13 38z"/>
<path d="M9550 4246 c0 -25 5 -48 10 -51 6 -4 10 13 10 44 0 28 -4 51 -10 51
-5 0 -10 -20 -10 -44z"/>
<path d="M9747 4284 c-10 -11 -8 -82 2 -88 12 -8 26 73 14 85 -5 5 -12 6 -16
3z"/>
<path d="M9980 4270 c0 -19 3 -21 12 -12 9 9 9 15 0 24 -9 9 -12 7 -12 -12z"/>
<path d="M10030 4265 c0 -14 5 -25 10 -25 6 0 10 11 10 25 0 14 -4 25 -10 25
-5 0 -10 -11 -10 -25z"/>
<path d="M10126 4275 c-9 -24 -7 -63 3 -69 11 -7 23 66 12 77 -5 5 -11 1 -15
-8z"/>
<path d="M9600 4240 c0 -22 5 -40 10 -40 6 0 10 18 10 40 0 22 -4 40 -10 40
-5 0 -10 -18 -10 -40z"/>
<path d="M10170 4234 c0 -27 4 -43 10 -39 6 3 10 24 10 46 0 21 -4 39 -10 39
-5 0 -10 -21 -10 -46z"/>
<path d="M13116 4258 c-3 -13 -6 -46 -6 -75 0 -43 5 -57 25 -78 32 -31 34 -31
67 0 20 18 28 38 33 78 11 87 8 92 -56 95 -52 3 -57 1 -63 -20z"/>
<path d="M9653 4244 c-3 -8 -1 -29 5 -47 10 -32 10 -31 11 16 1 48 -5 60 -16
31z"/>
<path d="M9696 4244 c-9 -24 -7 -84 3 -84 18 0 29 84 12 94 -5 3 -12 -1 -15
-10z"/>
<path d="M9308 4244 c-5 -4 -8 -16 -8 -28 0 -14 3 -17 11 -9 6 6 9 19 7 28 -1
9 -6 13 -10 9z"/>
<path d="M9330 4226 c0 -17 5 -26 16 -26 10 0 14 7 12 22 -5 32 -28 35 -28 4z"/>
<path d="M9790 4226 c0 -14 5 -26 10 -26 6 0 10 9 10 19 0 11 -4 23 -10 26 -6
4 -10 -5 -10 -19z"/>
<path d="M10075 4227 c-4 -10 -5 -21 -1 -24 10 -10 18 4 13 24 -4 17 -4 17
-12 0z"/>
<path d="M9947 4224 c-4 -4 -7 -14 -7 -23 0 -11 3 -12 11 -4 6 6 10 16 7 23
-2 6 -7 8 -11 4z"/>
<path d="M7877 4117 c-3 -7 -2 -19 3 -26 5 -9 9 -8 14 5 4 9 3 21 -2 26 -6 6
-12 4 -15 -5z"/>
<path d="M7832 4005 c0 -16 2 -22 5 -12 2 9 2 23 0 30 -3 6 -5 -1 -5 -18z"/>
<path d="M7832 3930 c0 -14 2 -19 5 -12 2 6 2 18 0 25 -3 6 -5 1 -5 -13z"/>
<path d="M7991 3934 c0 -11 3 -14 6 -6 3 7 2 16 -1 19 -3 4 -6 -2 -5 -13z"/>
<path d="M7983 3858 c-22 -27 -53 -98 -53 -120 0 -13 4 -29 9 -37 14 -22 64 3
78 39 21 56 -7 152 -34 118z"/>
<path d="M8045 3788 c-4 -10 -4 -26 0 -35 8 -17 8 -17 12 0 3 9 3 25 0 35 -4
16 -4 16 -12 0z"/>
<path d="M7889 3775 c-6 -30 -5 -85 1 -85 12 0 19 52 10 74 -5 12 -10 17 -11
11z"/>
<path d="M8106 3742 c-3 -5 1 -9 9 -9 8 0 15 4 15 9 0 4 -4 8 -9 8 -6 0 -12
-4 -15 -8z"/>
<path d="M5345 4420 c-7 -23 -43 -27 -51 -6 -4 11 -12 12 -36 4 -21 -8 -33 -7
-41 1 -31 31 -93 -12 -66 -45 16 -19 54 -41 45 -25 -4 6 0 11 11 12 10 0 44 3
77 5 32 2 64 0 71 -6 8 -7 17 -4 30 10 15 17 16 24 7 45 -14 30 -38 33 -47 5z"/>
<path d="M2195 1609 c-19 -7 -19 -8 3 -8 13 -1 22 -7 22 -16 0 -16 35 -21 45
-5 9 15 -47 39 -70 29z"/>
<path d="M1540 1522 c0 -19 12 -42 22 -42 14 0 5 43 -9 48 -7 2 -13 -1 -13 -6z"/>
<path d="M7316 1263 c-11 -11 -6 -23 9 -23 8 0 15 4 15 9 0 13 -16 22 -24 14z"/>
<path d="M10986 525 c4 -8 8 -15 10 -15 2 0 4 7 4 15 0 8 -4 15 -10 15 -5 0
-7 -7 -4 -15z"/>
<path d="M9452 476 c1 -10 8 -17 13 -17 15 1 12 24 -3 29 -9 3 -13 -2 -10 -12z"/>
<path d="M15950 8045 c-10 -12 -10 -15 3 -15 19 0 31 16 18 24 -5 3 -14 -1
-21 -9z"/>
<path d="M15128 7703 c7 -3 16 -2 19 1 4 3 -2 6 -13 5 -11 0 -14 -3 -6 -6z"/>
<path d="M15217 7703 c-4 -3 -7 -18 -7 -32 0 -15 -9 -34 -20 -44 -23 -19 -17
-47 10 -47 21 0 30 19 30 61 0 17 5 39 10 50 8 14 7 19 -3 19 -8 0 -17 -3 -20
-7z"/>
<path d="M15477 7703 c-4 -3 -7 -34 -6 -67 l1 -61 11 45 12 45 48 -1 c26 0 53
-6 59 -12 10 -10 7 -12 -12 -10 -21 3 -26 -2 -28 -24 -3 -23 2 -30 30 -42 29
-12 34 -12 46 2 21 27 15 86 -11 110 -19 18 -35 22 -83 22 -34 0 -64 -3 -67
-7z m143 -93 c0 -5 -9 -10 -20 -10 -11 0 -20 5 -20 10 0 6 9 10 20 10 11 0 20
-4 20 -10z"/>
<path d="M15910 7701 c0 -9 34 -21 63 -21 9 0 17 7 17 15 0 11 -11 15 -40 15
-22 0 -40 -4 -40 -9z"/>
<path d="M15935 7630 c-28 -7 -27 -8 13 -9 23 0 42 4 42 9 0 11 -11 11 -55 0z"/>
<path d="M15915 7560 c-4 -6 5 -10 20 -10 15 0 24 4 20 10 -3 6 -12 10 -20 10
-8 0 -17 -4 -20 -10z"/>
<path d="M15984 6165 c0 -49 1 -71 3 -48 2 23 2 64 0 90 -2 26 -3 8 -3 -42z"/>
<path d="M15977 3883 c-27 -444 -41 -662 -67 -1038 -16 -236 -36 -533 -45
-660 -8 -126 -19 -255 -25 -285 -5 -30 -6 -67 -3 -82 3 -15 2 -36 -3 -45 -5
-10 -8 -42 -9 -72 0 -35 -5 -56 -13 -59 -10 -3 -11 -19 -6 -63 4 -35 2 -64 -3
-71 -15 -19 -27 -112 -14 -103 6 3 11 1 11 -4 0 -6 -4 -11 -9 -11 -5 0 -10
-43 -13 -95 -2 -52 -9 -100 -14 -105 -6 -6 -9 -32 -6 -59 3 -32 -1 -58 -12
-79 -9 -17 -16 -46 -17 -64 -1 -102 -9 -181 -18 -192 -6 -8 -9 -21 -5 -30 3
-9 1 -16 -5 -16 -6 0 -11 -15 -11 -32 0 -18 -5 -53 -11 -78 -7 -30 -7 -46 0
-48 14 -5 2 -32 -14 -32 -8 0 -15 -14 -17 -32 -3 -32 -4 -33 -73 -44 -38 -6
-140 -15 -225 -18 -85 -4 -171 -12 -190 -19 -19 -6 -42 -11 -50 -11 -10 -1
-16 -14 -18 -44 -4 -53 -22 -55 -22 -2 0 36 -3 40 -24 40 -24 0 -86 -51 -86
-71 0 -5 -4 -9 -9 -9 -12 0 -71 -59 -71 -71 0 -5 7 -9 15 -9 8 0 15 -4 15 -9
0 -5 -7 -14 -15 -21 -8 -7 -15 -18 -15 -25 0 -7 -7 -15 -15 -19 -9 -3 -12 -12
-9 -23 5 -14 4 -15 -4 -4 -10 14 -72 25 -70 12 0 -3 0 -16 -1 -29 -1 -30 -29
-26 -56 8 -22 28 -65 38 -65 16 0 -8 -7 -12 -17 -10 -27 6 -49 -11 -36 -28 13
-17 26 -111 14 -103 -14 8 -41 -6 -41 -21 0 -12 109 -14 705 -14 l705 0 0
1995 c0 1097 -2 1995 -3 1995 -2 0 -7 -48 -10 -107z m-160 -2285 c-3 -7 -5 -2
-5 12 0 14 2 19 5 13 2 -7 2 -19 0 -25z m-10 -150 c-3 -8 -6 -5 -6 6 -1 11 2
17 5 13 3 -3 4 -12 1 -19z m-829 -1199 c-3 -8 -7 -3 -11 10 -4 17 -3 21 5 13
5 -5 8 -16 6 -23z m7 -58 c-6 -5 -25 10 -25 20 0 5 6 4 14 -3 8 -7 12 -15 11
-17z m-55 -11 c0 -5 -2 -10 -4 -10 -3 0 -8 5 -11 10 -3 6 -1 10 4 10 6 0 11
-4 11 -10z m27 -22 c-3 -7 -5 -2 -5 12 0 14 2 19 5 13 2 -7 2 -19 0 -25z
m-226 -108 c-25 -21 -61 -27 -61 -9 0 5 4 8 9 5 5 -3 22 1 37 9 39 20 44 18
15 -5z m89 -10 c0 -5 -2 -10 -4 -10 -3 0 -8 5 -11 10 -3 6 -1 10 4 10 6 0 11
-4 11 -10z"/>
<path d="M14463 594 c-18 -14 -33 -30 -33 -35 0 -17 30 -9 42 11 17 26 26 25
60 -7 33 -32 37 -15 6 27 -27 36 -34 37 -75 4z"/>
<path d="M13365 260 c-4 -22 -2 -47 4 -57 9 -15 10 -12 11 17 l1 35 27 -33
c15 -18 31 -30 35 -26 11 11 8 94 -3 94 -5 0 -10 -12 -10 -27 l-1 -28 -16 27
c-27 42 -41 42 -48 -2z"/>
<path d="M13482 284 c-41 -28 -26 -84 23 -84 34 0 49 18 39 45 -9 22 -34 18
-34 -5 0 -21 -15 -27 -25 -10 -11 18 6 50 26 50 10 0 19 5 19 10 0 15 -22 12
-48 -6z"/>
<path d="M13300 240 c0 -51 4 -57 30 -40 13 9 13 11 0 20 -13 9 -13 11 0 21
11 7 12 12 3 15 -7 3 -9 12 -6 20 3 8 -1 14 -11 14 -13 0 -16 -11 -16 -50z"/>
<path d="M14274 244 c-4 -14 -2 -35 4 -47 6 -12 12 -33 14 -47 3 -23 8 -25 60
-28 53 -3 60 -1 82 25 31 35 32 47 5 85 -18 25 -27 29 -60 27 -21 -2 -41 0
-45 4 -4 4 -18 7 -30 7 -17 0 -25 -7 -30 -26z"/>
<path d="M13778 234 c-16 -8 -28 -21 -28 -28 0 -17 81 -97 92 -90 4 3 8 12 8
19 0 9 6 12 15 9 10 -4 15 0 15 11 0 10 5 13 12 9 8 -5 9 0 6 14 -6 23 7 31
14 10 3 -8 6 -9 11 -1 4 6 -3 22 -14 37 -16 21 -29 26 -62 26 -23 -1 -54 -8
-69 -16z"/>
<path d="M14060 241 c0 -5 -11 -12 -25 -15 -21 -5 -25 -12 -25 -44 0 -33 4
-39 33 -52 17 -7 35 -15 40 -18 4 -2 7 3 7 12 0 19 11 21 28 4 9 -9 16 -7 31
8 21 24 41 58 41 73 0 19 -20 12 -20 -6 -1 -11 -7 -4 -15 15 -15 33 -30 41
-38 20 -4 -10 -7 -10 -18 0 -15 14 -39 16 -39 3z m10 -56 c0 -8 -6 -15 -14
-15 -17 0 -28 14 -19 24 12 12 33 6 33 -9z"/>
<path d="M10320 171 c-54 -48 -56 -48 -83 -34 -36 18 -44 11 -27 -22 11 -21
11 -27 -3 -43 -10 -10 -17 -24 -17 -30 0 -17 25 -15 40 3 18 22 35 19 73 -15
30 -26 43 -30 91 -30 l56 0 0 95 c0 93 -1 95 -25 101 -14 3 -25 10 -25 15 0
20 -28 6 -80 -40z m113 -6 c-7 -21 -13 -19 -13 6 0 11 4 18 10 14 5 -3 7 -12
3 -20z m-39 -31 c8 -22 7 -77 -2 -91 -9 -15 -72 31 -72 52 0 13 46 55 60 55 4
0 11 -7 14 -16z"/>
<path d="M10772 213 l-63 -4 3 -92 c3 -87 4 -92 26 -95 13 -2 29 1 36 7 8 6
20 9 29 5 10 -3 20 2 26 15 7 12 23 21 43 23 28 2 34 8 38 33 4 20 8 26 13 17
14 -21 27 -3 27 39 0 33 -4 41 -26 49 -14 6 -40 9 -57 8 -18 -1 -60 -3 -95 -5z
m88 -98 c0 -8 -7 -15 -15 -15 -8 0 -15 7 -15 15 0 8 7 15 15 15 8 0 15 -7 15
-15z"/>
<path d="M9763 198 c2 -8 23 -13 55 -14 52 0 82 -15 82 -42 0 -19 -39 -102
-48 -102 -4 0 -13 -9 -20 -20 -11 -19 -10 -20 23 -20 34 0 35 1 56 70 24 80
20 103 -23 125 -38 19 -132 21 -125 3z"/>
<path d="M13020 185 c-11 -13 -10 -14 2 -10 8 3 26 -5 41 -19 15 -14 29 -21
32 -16 5 8 -43 60 -56 60 -4 0 -12 -7 -19 -15z"/>
<path d="M9714 165 c-13 -20 -14 -32 -5 -75 16 -75 27 -90 63 -90 l32 0 -27
28 c-15 15 -27 35 -27 43 0 8 -7 25 -16 37 -12 18 -13 29 -5 52 12 36 7 38
-15 5z"/>
<path d="M9305 140 c-3 -5 -3 -14 0 -20 3 -5 1 -10 -4 -10 -14 0 -14 -27 -1
-35 6 -4 17 -2 25 5 10 8 17 6 28 -11 18 -25 37 -17 37 17 0 17 -10 30 -32 44
-38 23 -44 24 -53 10z"/>
<path d="M7680 130 c0 -12 17 -12 45 0 17 7 15 9 -12 9 -18 1 -33 -3 -33 -9z"/>
<path d="M6642 110 c-25 -24 -37 -60 -27 -89 11 -36 31 -25 27 15 -3 26 2 44
17 65 25 33 15 39 -17 9z"/>
<path d="M6770 120 c0 -5 4 -10 9 -10 14 0 31 -60 25 -86 -7 -27 10 -33 20 -8
11 30 6 61 -15 88 -21 26 -39 34 -39 16z"/>
<path d="M8155 104 c-26 -28 -29 -43 -19 -81 6 -21 13 -23 65 -23 l58 0 -15
28 c-18 35 -18 47 2 67 20 19 19 21 -29 29 -32 6 -40 3 -62 -20z"/>
<path d="M13387 94 c-3 -19 -3 -42 0 -50 8 -22 25 -5 18 19 -5 19 -3 19 17 -5
36 -42 48 -36 48 23 0 31 -4 48 -10 44 -5 -3 -10 -18 -10 -33 l0 -27 -20 33
c-25 41 -36 41 -43 -4z"/>
<path d="M7646 99 c-10 -12 -21 -39 -23 -60 -5 -34 -3 -39 15 -39 18 0 21 7
24 60 1 33 3 60 3 60 0 0 -9 -10 -19 -21z"/>
<path d="M13350 75 c0 -25 5 -45 10 -45 6 0 10 20 10 45 0 25 -4 45 -10 45 -5
0 -10 -20 -10 -45z"/>
<path d="M7780 99 c0 -5 5 -7 10 -4 6 3 10 8 10 11 0 2 -4 4 -10 4 -5 0 -10
-5 -10 -11z"/>
<path d="M6258 90 c-15 -4 -29 -6 -32 -3 -5 5 -26 -39 -26 -53 0 -2 23 -4 50
-4 l50 0 0 35 c0 37 -1 38 -42 25z"/>
<path d="M9219 75 c-7 -44 0 -62 24 -69 28 -7 87 -6 67 1 -28 11 -75 55 -81
77 -5 18 -6 17 -10 -9z"/>
<path d="M7095 81 c-3 -2 -5 -22 -5 -43 0 -37 1 -38 35 -38 33 0 35 2 35 33 0
17 -4 37 -8 44 -7 11 -47 14 -57 4z"/>
<path d="M1405 70 c-3 -5 3 -10 14 -10 24 0 28 -25 6 -34 -19 -7 -19 -26 0
-26 20 0 47 43 39 64 -7 17 -49 22 -59 6z"/>
<path d="M1487 74 c-4 -4 -7 -18 -7 -31 0 -21 10 -28 33 -24 4 0 7 -4 7 -9 0
-6 7 -10 16 -10 12 0 14 9 12 38 -3 31 -7 37 -28 40 -14 2 -29 0 -33 -4z m29
-31 c-10 -10 -19 5 -10 18 6 11 8 11 12 0 2 -7 1 -15 -2 -18z"/>
<path d="M1564 68 c-7 -11 2 -21 21 -24 8 -1 15 6 15 15 0 18 -27 24 -36 9z"/>
<path d="M1627 73 c-13 -12 -8 -73 6 -73 9 0 12 9 9 28 -3 22 1 31 20 39 l23
12 -26 0 c-14 1 -29 -2 -32 -6z"/>
<path d="M6182 55 c0 -16 2 -22 5 -12 2 9 2 23 0 30 -3 6 -5 -1 -5 -18z"/>
<path d="M7836 54 c-11 -28 -6 -54 9 -54 10 0 15 11 15 35 0 36 -13 47 -24 19z"/>
<path d="M1120 15 c0 -9 9 -15 25 -15 16 0 25 6 25 15 0 9 -9 15 -25 15 -16 0
-25 -6 -25 -15z"/>
<path d="M8755 10 c-45 -6 -42 -7 33 -8 53 -1 81 2 77 8 -7 11 -31 11 -110 0z"/>
</g>
</svg>
